<svg width="641" height="543" viewBox="0 0 641 543" fill="none" xmlns="http://www.w3.org/2000/svg">
<g clip-path="url(#clip0)">
<path d="M618.567 227.327C586.511 268.267 526.024 277.641 475.976 263.382C459.6 258.603 443.802 252.035 428.868 243.797C420.193 239.092 411.726 233.932 403.432 228.432C401.391 227.085 399.351 225.717 397.331 224.322C395.954 223.382 394.582 222.431 393.215 221.469C376.087 209.434 359.63 196.232 343.45 183.106C303.058 150.339 261.56 116.564 211.934 100.93C201.71 97.7108 188.484 96.2047 182.161 104.854C176.676 112.364 180.023 122.996 184.665 131.051C201.883 160.889 233.136 179.728 264.417 194.215C295.698 208.702 328.833 220.439 356.026 241.621C383.219 262.802 403.978 296.467 398.417 330.45C393.623 359.735 369.681 383.527 341.845 393.897C314.009 404.259 282.963 402.816 254.027 396.087C225.091 389.351 197.622 377.6 169.695 367.472C152.858 361.358 130.847 357.13 119.675 371.12C110.24 382.94 115.663 401.586 127.153 411.424C138.643 421.261 154.194 424.557 169.031 427.513C215.102 436.702 261.173 445.887 307.244 455.071C321.376 457.883 335.841 460.826 348.154 468.315C360.467 475.797 370.401 488.867 370.048 503.258C369.695 517.441 359.298 529.973 346.556 536.252C333.821 542.525 319.114 543.492 304.926 542.815C251.758 540.273 99.3306 455.914 62.7714 445.13C39.2795 438.208 13.5949 428.038 3.68879 405.669C-8.6452 377.821 11.651 344.128 39.3556 331.41C67.0533 318.684 99.1645 321.503 129.353 325.786C159.541 330.07 190.725 335.52 220.111 327.382C249.496 319.244 276.419 292.716 273.521 262.401C270.996 236.025 247.207 216.149 222.172 207.389C202.575 200.529 181.725 198.664 161.139 195.576C155.425 194.726 149.732 193.773 144.094 192.598C129.656 189.577 115.572 185.062 102.07 179.127C87.9017 172.911 74.4417 165.197 61.9207 156.115C51.934 148.882 42.6012 140.789 34.0293 131.928C32.7218 130.574 31.4282 129.19 30.1484 127.776C28.931 126.422 27.7272 125.041 26.5515 123.631C11.2498 105.372 -0.0536505 82.8852 3.33621 59.7143C6.71863 36.6056 24.7528 17.3655 46.2248 8.12202C58.6348 2.78179 72.0203 0.391464 85.5716 0.0460414C95.4804 -0.151733 105.386 0.560533 115.165 2.17385C160.412 9.40009 201.876 31.3552 241.036 55.1271C280.189 78.8991 318.346 104.992 360.91 121.939C403.473 138.892 451.924 146.07 495.103 130.74C538.282 115.417 573.755 73.6072 571.645 27.894C600.284 52.5226 624.62 83.4794 635.397 119.652C646.175 155.825 641.844 197.593 618.567 227.327Z" fill="#3F3D56"/>
<path d="M412.223 180.084C415.003 180.084 417.257 177.833 417.257 175.056C417.257 172.279 415.003 170.028 412.223 170.028C409.442 170.028 407.188 172.279 407.188 175.056C407.188 177.833 409.442 180.084 412.223 180.084Z" fill="#D2A24C"/>
<path d="M590.003 116.508C594.302 116.508 597.786 113.028 597.786 108.735C597.786 104.442 594.302 100.961 590.003 100.961C585.704 100.961 582.219 104.442 582.219 108.735C582.219 113.028 585.704 116.508 590.003 116.508Z" fill="#FF6584"/>
<path d="M79.4897 356.166C81.0781 356.166 82.3657 354.88 82.3657 353.294C82.3657 351.708 81.0781 350.422 79.4897 350.422C77.9014 350.422 76.6138 351.708 76.6138 353.294C76.6138 354.88 77.9014 356.166 79.4897 356.166Z" fill="#FF6584"/>
<path d="M162.038 188.184C162.04 190.675 161.738 193.157 161.139 195.576C155.425 194.726 149.732 193.773 144.094 192.598C129.656 189.577 115.572 185.062 102.07 179.127C104.241 172.126 108.854 166.134 115.071 162.24C121.288 158.346 128.697 156.807 135.954 157.903C143.21 158.999 149.832 162.657 154.618 168.213C159.404 173.769 162.037 180.854 162.038 188.184Z" fill="#FF6584"/>
<path d="M540.197 162.104C541.821 162.104 543.138 160.789 543.138 159.166C543.138 157.544 541.821 156.229 540.197 156.229C538.572 156.229 537.255 157.544 537.255 159.166C537.255 160.789 538.572 162.104 540.197 162.104Z" fill="#F0F0F0"/>
<path d="M271.105 485.419C272.73 485.419 274.046 484.104 274.046 482.482C274.046 480.86 272.73 479.545 271.105 479.545C269.481 479.545 268.164 480.86 268.164 482.482C268.164 484.104 269.481 485.419 271.105 485.419Z" fill="#F0F0F0"/>
<path d="M313.302 526.179C314.926 526.179 316.243 524.864 316.243 523.242C316.243 521.62 314.926 520.304 313.302 520.304C311.678 520.304 310.361 521.62 310.361 523.242C310.361 524.864 311.678 526.179 313.302 526.179Z" fill="#F0F0F0"/>
<path d="M52.5114 410.117C54.1359 410.117 55.4527 408.802 55.4527 407.18C55.4527 405.558 54.1359 404.242 52.5114 404.242C50.887 404.242 49.5701 405.558 49.5701 407.18C49.5701 408.802 50.887 410.117 52.5114 410.117Z" fill="#F0F0F0"/>
<path d="M197.088 355.54C198.712 355.54 200.029 354.225 200.029 352.603C200.029 350.981 198.712 349.666 197.088 349.666C195.463 349.666 194.146 350.981 194.146 352.603C194.146 354.225 195.463 355.54 197.088 355.54Z" fill="#F0F0F0"/>
<path d="M182.561 64.0038C184.185 64.0038 185.502 62.6887 185.502 61.0664C185.502 59.444 184.185 58.1289 182.561 58.1289C180.936 58.1289 179.62 59.444 179.62 61.0664C179.62 62.6887 180.936 64.0038 182.561 64.0038Z" fill="#F0F0F0"/>
<path d="M360.341 294.055C361.966 294.055 363.283 292.74 363.283 291.118C363.283 289.496 361.966 288.18 360.341 288.18C358.717 288.18 357.4 289.496 357.4 291.118C357.4 292.74 358.717 294.055 360.341 294.055Z" fill="#F0F0F0"/>
<path d="M382.477 345.178C384.102 345.178 385.419 343.863 385.419 342.24C385.419 340.618 384.102 339.303 382.477 339.303C380.853 339.303 379.536 340.618 379.536 342.24C379.536 343.863 380.853 345.178 382.477 345.178Z" fill="#F0F0F0"/>
<path d="M117.351 70.4429C117.372 85.2744 113.863 99.8986 107.113 113.109C106.22 114.85 105.275 116.561 104.277 118.242C94.3914 134.914 79.6015 148.138 61.9206 156.115C51.934 148.882 42.6012 140.788 34.0293 131.928C32.7218 130.574 31.4282 129.19 30.1484 127.776C28.931 126.422 27.7272 125.04 26.5514 123.631C11.2498 105.372 -0.0536499 82.885 3.33621 59.7141C6.71863 36.6053 24.7529 17.3652 46.2248 8.12172C58.6348 2.78148 72.0203 0.391199 85.5716 0.0457764C96.1674 9.39088 104.521 20.9985 110.011 34.0077C110.703 35.645 111.339 37.3031 111.941 38.9818C115.531 49.0831 117.361 59.7242 117.351 70.4429Z" fill="#D2A24C"/>
<path d="M160.239 75.2788C160.239 89.6691 146.169 103.016 120.616 112.875C115.504 114.85 110.032 116.64 104.277 118.242C82.7354 124.239 57.099 127.562 30.1484 127.776C28.931 126.422 27.7272 125.04 26.5515 123.631C26.8419 123.638 27.1324 123.638 27.4229 123.638C56.691 123.638 84.458 119.935 107.113 113.109C111.298 111.845 115.31 110.477 119.122 109.006C142.614 99.9489 156.089 87.6518 156.089 75.2788C156.089 62.9058 142.613 50.6156 119.122 41.5517C116.797 40.6536 114.404 39.797 111.941 38.9818C111.339 37.303 110.703 35.645 110.011 34.0077C113.691 35.1545 117.226 36.3796 120.616 37.683C146.169 47.5413 160.239 60.8954 160.239 75.2788Z" fill="#E4E4E4"/>
<path d="M31.7589 23.9348C33.3833 23.9348 34.7002 22.6197 34.7002 20.9974C34.7002 19.3751 33.3833 18.0599 31.7589 18.0599C30.1344 18.0599 28.8175 19.3751 28.8175 20.9974C28.8175 22.6197 30.1344 23.9348 31.7589 23.9348Z" fill="#F0F0F0"/>
<path d="M93.3248 42.5877C94.9492 42.5877 96.2661 41.2725 96.2661 39.6502C96.2661 38.0279 94.9492 36.7128 93.3248 36.7128C91.7004 36.7128 90.3835 38.0279 90.3835 39.6502C90.3835 41.2725 91.7004 42.5877 93.3248 42.5877Z" fill="#F0F0F0"/>
<path d="M61.5042 97.9219C77.3011 97.9219 90.1071 85.1327 90.1071 69.3565C90.1071 53.5803 77.3011 40.7911 61.5042 40.7911C45.7073 40.7911 32.9013 53.5803 32.9013 69.3565C32.9013 85.1327 45.7073 97.9219 61.5042 97.9219Z" fill="#F0F0F0"/>
<path opacity="0.3" d="M589.728 220.543C583.308 222.436 569.155 223.831 553.59 224.688C538.033 225.538 520.968 225.911 504.116 226.27C474.62 226.906 445.126 227.543 415.634 228.184C411.581 228.273 407.513 228.356 403.432 228.432C401.391 227.085 399.351 225.717 397.331 224.322C400.949 224.343 404.566 224.322 408.157 224.253C423.493 223.949 436.477 222.754 451.266 222.187C474.025 221.31 498.596 222.001 522.316 222.353C546.036 222.712 573.063 222.581 589.728 220.543Z" fill="#F0F0F0"/>
<path opacity="0.3" d="M137.025 438.319L43.0012 360.094L134.344 441.452C134.52 441.749 134.766 442.001 135.059 442.184C135.353 442.368 135.686 442.48 136.031 442.509C136.376 442.539 136.724 442.486 137.044 442.355C137.365 442.224 137.65 442.018 137.875 441.755C138.1 441.492 138.259 441.179 138.339 440.842C138.419 440.505 138.417 440.154 138.334 439.819C138.251 439.483 138.089 439.171 137.861 438.91C137.633 438.65 137.347 438.447 137.025 438.319H137.025Z" fill="#F0F0F0"/>
<path d="M65.6547 142.069C67.2792 142.069 68.596 140.754 68.596 139.132C68.596 137.51 67.2792 136.194 65.6547 136.194C64.0303 136.194 62.7134 137.51 62.7134 139.132C62.7134 140.754 64.0303 142.069 65.6547 142.069Z" fill="#F0F0F0"/>
<path d="M312.684 479.498L324.85 479.497L330.637 432.632L312.682 432.633L312.684 479.498Z" fill="#FFB6B6"/>
<path d="M309.58 475.531L313.005 475.53L326.374 470.101L333.54 475.53H333.541C337.59 475.53 341.474 477.136 344.337 479.996C347.2 482.856 348.809 486.734 348.809 490.778V491.274L309.581 491.275L309.58 475.531Z" fill="#2F2E41"/>
<path d="M221.574 479.498L209.408 479.497L203.62 432.632L221.576 432.633L221.574 479.498Z" fill="#FFB6B6"/>
<path d="M224.677 491.275L185.448 491.274V490.778C185.449 486.734 187.057 482.856 189.921 479.996C192.784 477.136 196.668 475.53 200.717 475.53H200.718L207.884 470.101L221.253 475.53L224.677 475.531L224.677 491.275Z" fill="#2F2E41"/>
<path d="M265.166 120.337L252.848 129.705L220.124 138.36C220.124 138.36 231.85 220.543 226.316 226.07C220.781 231.596 225.772 231.745 224.661 238.924C223.549 246.104 219.117 265.06 219.117 265.06H316.784C316.784 265.06 317.571 253.279 312.757 250.728C307.942 248.177 317.195 236.269 313.26 234.278C309.326 232.287 314.86 215.016 314.86 215.016L326.853 158.471L294.953 133.545L290.102 121.872L265.166 120.337Z" fill="#D2A24C"/>
<path d="M280.537 193.775C282.891 193.775 284.799 191.869 284.799 189.518C284.799 187.168 282.891 185.262 280.537 185.262C278.183 185.262 276.275 187.168 276.275 189.518C276.275 191.869 278.183 193.775 280.537 193.775Z" fill="#F2F2F2"/>
<path d="M219.117 265.06L215.09 368.632C215.09 368.632 197.7 445.129 200.721 447.14C203.741 449.151 205.021 461.143 205.021 461.143L222.138 463.154C222.138 463.154 222.138 455.11 226.165 452.093C230.193 449.076 267.447 307.293 267.447 307.293L303.792 444.377C303.792 444.377 304.702 452.093 307.722 452.093C310.743 452.093 311.75 463.154 311.75 463.154H328.867V452.093C328.867 452.093 336.558 449.658 333.537 441.613C330.517 433.569 316.784 265.06 316.784 265.06H219.117Z" fill="#2F2E41"/>
<path d="M277.958 114.165C289.358 114.165 298.599 104.936 298.599 93.551C298.599 82.1663 289.358 72.9371 277.958 72.9371C266.558 72.9371 257.317 82.1663 257.317 93.551C257.317 104.936 266.558 114.165 277.958 114.165Z" fill="#FFB6B6"/>
<path opacity="0.1" d="M313.26 186.123L317.287 189.14L319.301 175.062L313.26 186.123Z" fill="black"/>
<path d="M222.054 138.28C222.054 138.28 217.02 137.274 213.999 146.324C210.979 155.374 199.903 189.563 199.903 195.596C199.903 201.63 268.878 228.25 268.878 228.25L261.701 203.106L230.109 186.546L222.054 138.28Z" fill="#D2A24C"/>
<path d="M272.077 224.523C278.572 224.523 283.837 219.264 283.837 212.778C283.837 206.292 278.572 201.034 272.077 201.034C265.583 201.034 260.318 206.292 260.318 212.778C260.318 219.264 265.583 224.523 272.077 224.523Z" fill="#FFB6B6"/>
<path opacity="0.1" d="M229.189 174.091L230.109 186.546L259.323 201.859L233.339 184.454L229.189 174.091Z" fill="black"/>
<path d="M299.417 175.867H299.039V165.498C299.039 164.71 298.883 163.93 298.581 163.202C298.279 162.474 297.837 161.812 297.279 161.255C296.721 160.698 296.058 160.256 295.329 159.954C294.6 159.652 293.819 159.497 293.03 159.497H271.034C270.245 159.497 269.464 159.652 268.735 159.954C268.005 160.256 267.343 160.698 266.785 161.255C266.227 161.812 265.785 162.474 265.483 163.202C265.181 163.93 265.025 164.71 265.025 165.498V222.38C265.025 223.168 265.181 223.948 265.483 224.676C265.785 225.404 266.227 226.066 266.785 226.623C267.343 227.181 268.005 227.623 268.734 227.924C269.464 228.226 270.245 228.381 271.034 228.381H293.03C293.819 228.381 294.6 228.226 295.329 227.924C296.058 227.623 296.721 227.181 297.279 226.623C297.837 226.066 298.279 225.404 298.581 224.676C298.883 223.948 299.039 223.168 299.039 222.38V183.247H299.417V175.867Z" fill="#F0F0F0"/>
<path d="M326.853 158.471C326.853 158.471 329.874 160.482 331.887 169.532C333.901 178.582 346.99 212.771 341.956 220.815C336.922 228.86 335.435 237.445 318.319 225.379L294.633 203.721L311.75 187.632L318.798 192.66L326.853 158.471Z" fill="#D2A24C"/>
<path d="M282.301 184.849C285.081 184.849 287.335 182.598 287.335 179.822C287.335 177.045 285.081 174.794 282.301 174.794C279.52 174.794 277.266 177.045 277.266 179.822C277.266 182.598 279.52 184.849 282.301 184.849Z" fill="#D2A24C"/>
<path d="M296.874 202.581C303.369 202.581 308.634 197.323 308.634 190.837C308.634 184.35 303.369 179.092 296.874 179.092C290.379 179.092 285.114 184.35 285.114 190.837C285.114 197.323 290.379 202.581 296.874 202.581Z" fill="#FFB6B6"/>
<path opacity="0.1" d="M228.634 211.682L262.393 226.595L227.696 219.823L228.634 211.682Z" fill="black"/>
<path d="M257.134 97.6591L254.3 86.8875C253.56 84.077 252.815 81.2096 252.981 78.3084C253.147 75.4072 254.379 72.4134 256.826 70.8417C259.274 69.2699 263.01 69.6412 264.585 72.0847C264.884 68.183 268.438 65.1819 272.209 64.1187C275.98 63.0555 279.984 63.4759 283.898 63.6553C287.812 63.8347 291.943 63.7095 295.322 61.7269C295.579 62.4983 295.562 63.3348 295.274 64.0952C294.985 64.8555 294.443 65.4932 293.738 65.9005C294.578 66.1294 295.473 66.0311 296.243 65.6255C297.013 65.22 297.6 64.5374 297.885 63.7161C297.911 65.9757 297.075 68.1604 295.546 69.8268C297.004 69.1045 298.679 68.9497 300.245 69.3925C301.811 69.8353 303.155 70.844 304.018 72.2224C305.742 75.2073 304.776 78.9561 303.767 82.2515L298.59 99.165C297.805 96.5939 297.657 93.8794 297.237 91.2243C296.817 88.5692 296.07 85.8577 294.315 83.8197C292.56 81.7817 289.579 80.6014 287.085 81.6133C285.686 82.1811 284.619 83.3329 283.356 84.1595C280.765 85.8557 277.468 86.099 274.389 85.7538C271.31 85.4087 268.309 84.533 265.23 84.1832C263.303 83.9642 261.152 84.0222 259.697 85.3045C258.697 86.3425 258.036 87.6598 257.803 89.0815C257.116 91.9153 256.847 94.8338 257.002 97.7452" fill="#2F2E41"/>
</g>
<defs>
<clipPath id="clip0">
<rect width="641" height="543" fill="white"/>
</clipPath>
</defs>
</svg>
