<svg width="619" height="568" viewBox="0 0 619 568" fill="none" xmlns="http://www.w3.org/2000/svg">
<g clip-path="url(#clip0)">
<path d="M43.1948 505.521C33.0547 512.503 22.6856 519.709 15.6641 529.823C8.64307 539.937 5.57813 553.743 11.2197 564.686L11.0742 565.368C15.3501 566.871 19.941 567.248 24.4046 566.461C28.8682 565.675 33.0542 563.753 36.5591 560.879C45.4849 553.387 48.2837 541.044 50.5606 529.615L57.2959 495.811L43.1948 505.521Z" fill="#F0F0F0"/>
<path d="M52.9614 539.61C46.1972 541.107 39.2664 542.671 33.4662 546.46C27.6663 550.249 23.1484 556.8 23.7759 563.7L23.5558 564.024C25.4676 565.712 27.7818 566.88 30.2757 567.414C32.7695 567.948 35.3588 567.83 37.7941 567.073C44.0328 565.054 48.1025 559.21 51.7067 553.732L62.3677 537.529L52.9614 539.61Z" fill="#F0F0F0"/>
<path d="M617.662 30.1771H40.106C39.8842 30.1764 39.6717 30.0877 39.5151 29.9306C39.3586 29.7735 39.2706 29.5607 39.2706 29.3389C39.2706 29.117 39.3586 28.9043 39.5151 28.7471C39.6717 28.59 39.8842 28.5014 40.106 28.5006H617.662C617.884 28.5014 618.096 28.59 618.253 28.7471C618.409 28.9043 618.497 29.117 618.497 29.3389C618.497 29.5607 618.409 29.7735 618.253 29.9306C618.096 30.0877 617.884 30.1764 617.662 30.1771Z" fill="#CACACA"/>
<path d="M58.9732 18.4415C64.0657 18.4415 68.194 14.3133 68.194 9.22077C68.194 4.12828 64.0657 0 58.9732 0C53.8807 0 49.7525 4.12828 49.7525 9.22077C49.7525 14.3133 53.8807 18.4415 58.9732 18.4415Z" fill="#3F3D56"/>
<path d="M90.8268 18.4415C95.9193 18.4415 100.048 14.3133 100.048 9.22077C100.048 4.12828 95.9193 0 90.8268 0C85.7343 0 81.6061 4.12828 81.6061 9.22077C81.6061 14.3133 85.7343 18.4415 90.8268 18.4415Z" fill="#3F3D56"/>
<path d="M122.68 18.4415C127.773 18.4415 131.901 14.3133 131.901 9.22077C131.901 4.12828 127.773 0 122.68 0C117.588 0 113.46 4.12828 113.46 9.22077C113.46 14.3133 117.588 18.4415 122.68 18.4415Z" fill="#3F3D56"/>
<path d="M598.577 5.64011H575.944C575.499 5.64011 575.073 5.46347 574.758 5.14906C574.444 4.83466 574.267 4.40824 574.267 3.96361C574.267 3.51897 574.444 3.09254 574.758 2.77814C575.073 2.46373 575.499 2.28711 575.944 2.28711H598.577C599.021 2.28711 599.448 2.46373 599.762 2.77814C600.077 3.09254 600.253 3.51897 600.253 3.96361C600.253 4.40824 600.077 4.83466 599.762 5.14906C599.448 5.46347 599.021 5.64011 598.577 5.64011Z" fill="#3F3D56"/>
<path d="M598.577 11.927H575.944C575.499 11.927 575.073 11.7503 574.758 11.4359C574.444 11.1215 574.267 10.6951 574.267 10.2505C574.267 9.80584 574.444 9.37942 574.758 9.06502C575.073 8.75061 575.499 8.57397 575.944 8.57397H598.577C599.021 8.57397 599.448 8.75061 599.762 9.06502C600.077 9.37942 600.253 9.80584 600.253 10.2505C600.253 10.6951 600.077 11.1215 599.762 11.4359C599.448 11.7503 599.021 11.927 598.577 11.927Z" fill="#3F3D56"/>
<path d="M598.577 18.2138H575.944C575.499 18.2138 575.073 18.0372 574.758 17.7228C574.444 17.4084 574.267 16.982 574.267 16.5373C574.267 16.0927 574.444 15.6663 574.758 15.3519C575.073 15.0375 575.499 14.8608 575.944 14.8608H598.577C599.02 14.8624 599.445 15.0397 599.758 15.3539C600.072 15.6682 600.247 16.0937 600.247 16.5373C600.247 16.981 600.072 17.4065 599.758 17.7208C599.445 18.035 599.02 18.2123 598.577 18.2138Z" fill="#3F3D56"/>
<path d="M432.603 66.1229H49.5215V295.804H432.603V66.1229Z" fill="#F0F0F0"/>
<path d="M600.253 66.1229H479.545V138.495H600.253V66.1229Z" fill="#F0F0F0"/>
<path d="M576.171 171.743H504.35C503.453 171.743 502.592 171.386 501.958 170.752C501.324 170.117 500.967 169.257 500.967 168.36C500.967 167.463 501.324 166.602 501.958 165.968C502.592 165.333 503.453 164.977 504.35 164.977H576.171C577.068 164.977 577.929 165.333 578.563 165.968C579.198 166.602 579.554 167.463 579.554 168.36C579.554 169.257 579.198 170.117 578.563 170.752C577.929 171.386 577.068 171.743 576.171 171.743H576.171Z" fill="#E4E4E4"/>
<path d="M564.591 160.163H515.93C515.033 160.163 514.172 159.806 513.538 159.172C512.903 158.538 512.547 157.677 512.547 156.78C512.547 155.883 512.903 155.022 513.538 154.388C514.172 153.753 515.033 153.397 515.93 153.397H564.591C565.489 153.397 566.349 153.753 566.983 154.388C567.618 155.022 567.974 155.883 567.974 156.78C567.974 157.677 567.618 158.538 566.983 159.172C566.349 159.806 565.489 160.163 564.591 160.163Z" fill="#E4E4E4"/>
<path d="M600.253 197.729H479.545V270.101H600.253V197.729Z" fill="#F0F0F0"/>
<path d="M576.171 303.348H504.35C503.453 303.348 502.592 302.992 501.958 302.357C501.324 301.723 500.967 300.863 500.967 299.965C500.967 299.068 501.324 298.208 501.958 297.573C502.592 296.939 503.453 296.583 504.35 296.583H576.171C577.068 296.583 577.929 296.939 578.563 297.573C579.198 298.208 579.554 299.068 579.554 299.965C579.554 300.863 579.198 301.723 578.563 302.357C577.929 302.992 577.068 303.348 576.171 303.348H576.171Z" fill="#E4E4E4"/>
<path d="M564.591 291.768H515.93C515.033 291.768 514.172 291.412 513.538 290.778C512.903 290.143 512.547 289.283 512.547 288.386C512.547 287.488 512.903 286.628 513.538 285.994C514.172 285.359 515.033 285.003 515.93 285.003H564.591C565.487 285.004 566.346 285.361 566.98 285.996C567.613 286.63 567.968 287.489 567.968 288.386C567.968 289.282 567.613 290.141 566.98 290.776C566.346 291.41 565.487 291.767 564.591 291.768Z" fill="#E4E4E4"/>
<path d="M247.719 189.682C263.507 189.682 276.305 176.884 276.305 161.096C276.305 145.308 263.507 132.509 247.719 132.509C231.931 132.509 219.132 145.308 219.132 161.096C219.132 176.884 231.931 189.682 247.719 189.682Z" fill="#9E616A"/>
<path d="M295.884 295.804H224.205L228.228 205.164L228.723 204.644L235.84 197.133H258.473L266.872 205.264L267.534 205.91L285.406 223.035L295.884 295.804Z" fill="#D2A24C"/>
<path d="M244.046 295.804H189.568C189.208 261.117 188.923 234.947 188.923 234.947L191.706 233.254L191.723 233.245L222.277 214.695L228.69 204.275L228.723 204.644L230.609 226.606C230.609 226.606 240.861 259.726 244.046 295.804Z" fill="#2F2E41"/>
<path d="M318.173 295.804H269.697C267.106 284.052 265.757 272.861 266.344 263.531C268.724 225.416 263.234 204.275 265.614 204.275L266.872 205.264L281.826 217.075L301.517 224.293L315.18 229.305L317.561 230.177V231.326C317.569 237.093 317.628 263.875 318.173 295.804Z" fill="#2F2E41"/>
<path d="M220.674 170.039C220.674 170.039 223.103 165.774 222.539 151.525C221.974 137.276 243.672 145.335 261.803 143.976C279.934 142.616 276.096 167.765 276.096 167.765C276.096 167.765 277.404 166.27 280.205 154.133C283.005 141.995 276.646 129.9 276.646 129.9C274.774 117.145 264.681 121.233 264.681 121.233C269.542 123.125 268.608 127.171 268.608 127.171C264.494 119.958 254.401 124.045 254.401 124.045C240.94 115.598 227.298 126.722 227.298 126.722C211.037 130.413 220.574 143.344 220.574 143.344C204.22 151.609 220.674 170.039 220.674 170.039Z" fill="#2F2E41"/>
<path d="M173.784 295.804C175.175 267.982 176.24 246.154 175.821 244.469C174.647 239.784 191.203 233.438 191.706 233.254L191.714 233.245H191.723L194.883 234.947L197.196 295.804H173.784Z" fill="#2F2E41"/>
<path d="M329.573 295.804H304.971L297.929 226.254L300.829 224.133C300.829 224.133 301.081 224.192 301.517 224.293C303.772 224.854 311.048 226.757 315.18 229.305C316.095 229.822 316.903 230.507 317.561 231.326C317.964 231.807 318.165 232.426 318.123 233.052C317.913 235.022 323.278 262.869 329.573 295.804Z" fill="#2F2E41"/>
<path d="M370.991 323.886H111.133C110.134 323.887 109.176 324.285 108.47 324.993C107.764 325.7 107.367 326.658 107.367 327.658C107.367 328.657 107.764 329.616 108.47 330.323C109.176 331.03 110.134 331.428 111.133 331.43H370.991C371.487 331.431 371.978 331.334 372.437 331.144C372.895 330.955 373.312 330.677 373.662 330.327C374.013 329.977 374.292 329.561 374.482 329.103C374.672 328.645 374.769 328.154 374.769 327.658C374.769 327.162 374.672 326.671 374.482 326.213C374.292 325.755 374.013 325.339 373.662 324.988C373.312 324.638 372.895 324.36 372.437 324.171C371.978 323.982 371.487 323.885 370.991 323.886Z" fill="#CACACA"/>
<path d="M300.578 323.885V331.43H111.133C110.134 331.428 109.176 331.03 108.47 330.323C107.764 329.616 107.367 328.657 107.367 327.658C107.367 326.658 107.764 325.7 108.47 324.993C109.176 324.285 110.134 323.887 111.133 323.885H300.578Z" fill="#3F3D56"/>
<path d="M300.578 335.202C304.745 335.202 308.122 331.824 308.122 327.658C308.122 323.491 304.745 320.113 300.578 320.113C296.411 320.113 293.034 323.491 293.034 327.658C293.034 331.824 296.411 335.202 300.578 335.202Z" fill="#3F3D56"/>
<path d="M241.062 390.526C237.982 390.526 234.971 389.613 232.41 387.902C229.849 386.191 227.853 383.758 226.674 380.913C225.496 378.067 225.187 374.936 225.788 371.915C226.389 368.894 227.872 366.119 230.05 363.941C232.228 361.763 235.003 360.28 238.024 359.679C241.045 359.078 244.176 359.387 247.022 360.565C249.867 361.744 252.3 363.74 254.011 366.301C255.722 368.862 256.635 371.873 256.635 374.953C256.631 379.082 254.988 383.04 252.069 385.96C249.149 388.88 245.191 390.522 241.062 390.526ZM241.062 360.578C238.219 360.578 235.44 361.421 233.076 363.001C230.712 364.58 228.869 366.825 227.781 369.452C226.693 372.079 226.408 374.969 226.963 377.758C227.518 380.546 228.887 383.108 230.897 385.118C232.908 387.129 235.469 388.498 238.258 389.052C241.046 389.607 243.937 389.322 246.563 388.234C249.19 387.146 251.435 385.304 253.015 382.94C254.594 380.576 255.437 377.796 255.437 374.953C255.433 371.142 253.917 367.488 251.222 364.793C248.527 362.098 244.873 360.582 241.062 360.578V360.578Z" fill="#D2A24C"/>
<path d="M239.005 383.339C238.847 383.339 238.694 383.276 238.582 383.163C238.469 383.051 238.406 382.899 238.406 382.74V367.167C238.406 367.087 238.42 367.009 238.45 366.936C238.48 366.862 238.524 366.795 238.58 366.739C238.635 366.683 238.702 366.638 238.775 366.608C238.848 366.577 238.926 366.562 239.005 366.562C239.085 366.562 239.163 366.577 239.236 366.608C239.309 366.638 239.375 366.683 239.431 366.739C239.487 366.795 239.531 366.862 239.56 366.936C239.59 367.009 239.605 367.087 239.604 367.167V382.74C239.604 382.899 239.541 383.051 239.429 383.163C239.317 383.276 239.164 383.339 239.005 383.339Z" fill="#D2A24C"/>
<path d="M243.119 383.339C242.96 383.339 242.808 383.276 242.695 383.163C242.583 383.051 242.52 382.899 242.52 382.74V367.167C242.519 367.088 242.534 367.009 242.564 366.936C242.594 366.862 242.638 366.796 242.693 366.74C242.749 366.683 242.815 366.639 242.888 366.608C242.961 366.578 243.04 366.562 243.119 366.562C243.198 366.562 243.276 366.578 243.349 366.608C243.422 366.639 243.489 366.683 243.544 366.74C243.6 366.796 243.644 366.862 243.674 366.936C243.704 367.009 243.719 367.088 243.718 367.167V382.74C243.718 382.899 243.655 383.051 243.542 383.163C243.43 383.276 243.278 383.339 243.119 383.339Z" fill="#D2A24C"/>
<path d="M169.733 374.953C169.733 371.873 170.646 368.862 172.357 366.301C174.069 363.74 176.501 361.744 179.346 360.565C182.192 359.387 185.323 359.078 188.344 359.679C191.365 360.28 194.14 361.763 196.318 363.941C198.496 366.119 199.979 368.894 200.58 371.915C201.181 374.936 200.873 378.067 199.694 380.913C198.515 383.758 196.519 386.191 193.958 387.902C191.397 389.613 188.386 390.526 185.306 390.526C181.177 390.522 177.219 388.88 174.299 385.96C171.38 383.04 169.737 379.082 169.733 374.953ZM170.931 374.953C170.931 377.796 171.774 380.576 173.353 382.94C174.933 385.304 177.178 387.146 179.805 388.234C182.432 389.322 185.322 389.607 188.111 389.052C190.899 388.498 193.461 387.129 195.471 385.118C197.481 383.108 198.851 380.546 199.405 377.758C199.96 374.969 199.675 372.079 198.587 369.452C197.499 366.825 195.657 364.58 193.293 363.001C190.929 361.421 188.149 360.578 185.306 360.578C181.495 360.582 177.841 362.098 175.146 364.793C172.451 367.488 170.935 371.142 170.931 374.953H170.931Z" fill="#3F3D56"/>
<path d="M192.033 380.196C192.142 380.197 192.249 380.16 192.336 380.094C192.423 380.027 192.486 379.933 192.514 379.827C192.543 379.722 192.535 379.609 192.493 379.508C192.451 379.406 192.377 379.322 192.282 379.267L184.81 374.953L192.282 370.639C192.396 370.573 192.48 370.465 192.514 370.337C192.548 370.209 192.53 370.073 192.464 369.959C192.398 369.845 192.29 369.761 192.162 369.727C192.034 369.693 191.898 369.711 191.784 369.777L183.565 374.522C183.489 374.565 183.427 374.628 183.383 374.704C183.339 374.78 183.316 374.866 183.316 374.953C183.316 375.041 183.339 375.127 183.383 375.202C183.427 375.278 183.489 375.341 183.565 375.385L191.784 380.13C191.859 380.174 191.945 380.197 192.033 380.196Z" fill="#3F3D56"/>
<path d="M181.012 381.927C181.144 381.927 181.271 381.874 181.365 381.781C181.458 381.687 181.51 381.561 181.51 381.429V368.478C181.51 368.346 181.458 368.219 181.365 368.126C181.271 368.032 181.144 367.98 181.012 367.98C180.88 367.98 180.754 368.032 180.66 368.126C180.567 368.219 180.514 368.346 180.514 368.478V381.429C180.514 381.561 180.567 381.687 180.66 381.781C180.754 381.874 180.88 381.927 181.012 381.927Z" fill="#3F3D56"/>
<path d="M296.818 390.526C293.738 390.526 290.727 389.613 288.166 387.902C285.605 386.191 283.609 383.758 282.43 380.913C281.252 378.067 280.943 374.936 281.544 371.915C282.145 368.894 283.628 366.119 285.806 363.941C287.984 361.763 290.759 360.28 293.78 359.679C296.801 359.078 299.932 359.387 302.778 360.565C305.623 361.744 308.056 363.74 309.767 366.301C311.478 368.862 312.391 371.873 312.391 374.953C312.387 379.082 310.744 383.04 307.825 385.96C304.905 388.88 300.947 390.522 296.818 390.526ZM296.818 360.578C293.975 360.578 291.196 361.421 288.832 363.001C286.468 364.58 284.625 366.825 283.537 369.452C282.449 372.079 282.164 374.969 282.719 377.758C283.274 380.546 284.643 383.108 286.653 385.118C288.664 387.129 291.225 388.498 294.014 389.052C296.802 389.607 299.693 389.322 302.319 388.234C304.946 387.146 307.191 385.304 308.771 382.94C310.35 380.576 311.193 377.796 311.193 374.953C311.189 371.142 309.673 367.488 306.978 364.793C304.283 362.098 300.629 360.582 296.818 360.578V360.578Z" fill="#3F3D56"/>
<path d="M290.092 380.196C289.982 380.197 289.875 380.16 289.788 380.094C289.701 380.027 289.639 379.933 289.61 379.827C289.582 379.722 289.589 379.609 289.631 379.508C289.673 379.406 289.747 379.322 289.842 379.267L297.314 374.953L289.842 370.639C289.728 370.573 289.645 370.464 289.611 370.337C289.577 370.21 289.595 370.074 289.661 369.96C289.727 369.846 289.836 369.762 289.963 369.728C290.09 369.694 290.226 369.711 290.34 369.777L298.559 374.522C298.635 374.565 298.698 374.628 298.741 374.704C298.785 374.78 298.808 374.866 298.808 374.953C298.808 375.041 298.785 375.127 298.741 375.202C298.698 375.278 298.635 375.341 298.559 375.385L290.34 380.13C290.265 380.174 290.179 380.197 290.092 380.196Z" fill="#3F3D56"/>
<path d="M301.112 381.927C300.98 381.927 300.853 381.874 300.76 381.781C300.666 381.687 300.614 381.561 300.614 381.429V368.478C300.614 368.346 300.666 368.219 300.76 368.126C300.853 368.032 300.98 367.98 301.112 367.98C301.244 367.98 301.371 368.032 301.464 368.126C301.557 368.219 301.61 368.346 301.61 368.478V381.429C301.61 381.561 301.557 381.687 301.464 381.781C301.371 381.874 301.244 381.927 301.112 381.927Z" fill="#3F3D56"/>
<path d="M91.2434 386.691C90.4203 385.866 89.788 384.871 89.391 383.775C88.9941 382.68 88.8421 381.511 88.9459 380.35C89.0497 379.19 89.4066 378.066 89.9917 377.058C90.5767 376.051 91.3756 375.184 92.332 374.518L84.6697 347.251L98.6905 351.728L103.817 376.935C104.829 378.615 105.188 380.609 104.828 382.537C104.468 384.466 103.414 386.195 101.864 387.397C100.314 388.6 98.3766 389.192 96.4193 389.062C94.4619 388.932 92.6203 388.088 91.2434 386.691Z" fill="#FFB6B6"/>
<path d="M87.496 250.842L84.5917 247.82C84.5917 247.82 75.6123 253.988 77.5122 273.107C78.9155 287.229 74.4809 293.218 74.9765 334.264L87.496 371.855L101.976 364.264L91.5 317.882L87.496 250.842Z" fill="#D2A24C"/>
<path d="M98.359 555.931H108.742L113.682 515.882L98.357 515.883L98.359 555.931Z" fill="#FFB6B6"/>
<path d="M95.7106 552.541L116.158 552.54H116.159C119.615 552.54 122.93 553.913 125.373 556.357C127.817 558.801 129.19 562.115 129.19 565.571V565.994L95.7113 565.996L95.7106 552.541Z" fill="#2F2E41"/>
<path d="M128.639 552.254L138.945 553.517L148.723 514.368L133.513 512.503L128.639 552.254Z" fill="#FFB6B6"/>
<path d="M126.423 548.566L146.718 551.055L146.719 551.055C150.15 551.476 153.272 553.242 155.4 555.965C157.528 558.688 158.487 562.145 158.067 565.575L158.015 565.996L124.785 561.921L126.423 548.566Z" fill="#2F2E41"/>
<path d="M92.9774 350.595C92.9774 350.595 72.9763 364.264 82.9763 401.264L96.5 544.882L112.567 544.768L119.372 473.902L123.997 424.012L139.451 475.603L126.74 538.907L145.5 540.882L167.976 467.264L157.137 362.45L92.9774 350.595Z" fill="#2F2E41"/>
<path d="M141.237 243.94L131.067 235.76L104.097 234.65L84.5917 247.82C84.5917 247.82 82.5783 294.716 95.7774 336.49L88.8573 353.94L158.047 362.62L141.237 243.94Z" fill="#D2A24C"/>
<path d="M119.432 224.613C132.208 224.613 142.566 214.256 142.566 201.479C142.566 188.703 132.208 178.345 119.432 178.345C106.655 178.345 96.2976 188.703 96.2976 201.479C96.2976 214.256 106.655 224.613 119.432 224.613Z" fill="#FFB6B6"/>
<path d="M125.5 172.882H120.359C116.777 171.814 112.995 171.598 109.314 172.25C105.633 172.903 102.156 174.406 99.1587 176.639C96.1616 178.873 93.7277 181.776 92.0508 185.117C90.3739 188.458 89.5004 192.144 89.5 195.882L81.4932 222.304C81.2623 223.066 81.2131 223.871 81.3494 224.656C81.4857 225.44 81.8038 226.182 82.2781 226.821C82.7525 227.46 83.37 227.98 84.0812 228.338C84.7923 228.696 85.5774 228.882 86.3735 228.882H90.2817C91.9183 226.551 92.6321 223.696 92.2852 220.869C93.0119 222.639 93.5212 224.49 93.8018 226.383C93.8924 227.214 93.8752 228.055 93.7505 228.882H127.751C127.971 225.547 126.866 222.26 124.677 219.735C127.416 222.472 129.797 225.545 131.762 228.882H132.401C133.753 228.882 135.05 228.345 136.007 227.388C136.963 226.432 137.5 225.135 137.5 223.783V197.882H150.5C150.5 194.599 149.853 191.348 148.597 188.315C147.341 185.282 145.499 182.526 143.178 180.204C140.856 177.883 138.1 176.041 135.067 174.785C132.034 173.529 128.783 172.882 125.5 172.882Z" fill="#2F2E41"/>
<path d="M151.243 384.691C150.42 383.866 149.788 382.871 149.391 381.775C148.994 380.68 148.842 379.511 148.946 378.35C149.05 377.19 149.407 376.066 149.992 375.058C150.577 374.051 151.376 373.184 152.332 372.518L144.67 345.251L158.69 349.728L163.817 374.934C164.829 376.615 165.188 378.609 164.828 380.537C164.468 382.466 163.414 384.195 161.864 385.397C160.314 386.6 158.377 387.192 156.419 387.062C154.462 386.932 152.62 386.088 151.243 384.691Z" fill="#FFB6B6"/>
<path d="M132.467 249.114L141.237 243.94C141.237 243.94 155.031 241.508 156.504 259.886C157.976 278.264 160.097 325.97 160.097 325.97L164.4 366.185L148.434 369.59L130.083 314.595L132.467 249.114Z" fill="#D2A24C"/>
<path d="M213 567.882H1C0.734784 567.882 0.480444 567.777 0.292908 567.589C0.105371 567.401 0 567.147 0 566.882C0 566.617 0.105371 566.362 0.292908 566.175C0.480444 565.987 0.734784 565.882 1 565.882H213C213.265 565.882 213.52 565.987 213.707 566.175C213.895 566.362 214 566.617 214 566.882C214 567.147 213.895 567.401 213.707 567.589C213.52 567.777 213.265 567.882 213 567.882Z" fill="#CACACA"/>
</g>
<defs>
<clipPath id="clip0">
<rect width="618.5" height="567.882" fill="white"/>
</clipPath>
</defs>
</svg>
